<mxfile host="app.diagrams.net" agent="Mozilla/5.0 (Windows NT 10.0; Win64; x64) AppleWebKit/537.36 (KHTML, like Gecko) Chrome/132.0.0.0 Safari/537.36" version="26.0.10">
  <diagram name="Page-1" id="3UdpM3VQEbxJ7XjGhjqT">
    <mxGraphModel dx="4975" dy="3365" grid="1" gridSize="10" guides="1" tooltips="1" connect="1" arrows="1" fold="1" page="1" pageScale="1" pageWidth="827" pageHeight="1169" math="0" shadow="0">
      <root>
        <mxCell id="0" />
        <mxCell id="1" parent="0" />
        <mxCell id="RtYx9xhGGRkn4zn4l_9_-4" value="" style="html=1;jettySize=18;whiteSpace=wrap;fontSize=13;strokeColor=#3a414a;strokeOpacity=100;strokeWidth=0.8;rounded=1;arcSize=12;edgeStyle=orthogonalEdgeStyle;startArrow=none;endArrow=block;endFill=1;lucidId=T_1NcUHb7CAU;" parent="1" edge="1">
          <mxGeometry width="100" height="100" relative="1" as="geometry">
            <Array as="points">
              <mxPoint x="70" y="290" />
              <mxPoint x="120" y="290" />
              <mxPoint x="120" y="1080" />
            </Array>
            <mxPoint x="70" y="140" as="sourcePoint" />
            <mxPoint x="120" y="1090" as="targetPoint" />
          </mxGeometry>
        </mxCell>
        <mxCell id="RtYx9xhGGRkn4zn4l_9_-6" value="Sign Up" style="html=1;overflow=block;blockSpacing=1;whiteSpace=wrap;ellipse;fontSize=13;spacing=3.8;strokeColor=#3a414a;strokeOpacity=100;fillOpacity=100;rounded=1;absoluteArcSize=1;arcSize=9;fillColor=#ffffff;strokeWidth=1.5;lucidId=Vd2NLH37KcO3;" parent="1" vertex="1">
          <mxGeometry x="405" y="38" width="120" height="90" as="geometry" />
        </mxCell>
        <mxCell id="RtYx9xhGGRkn4zn4l_9_-7" value="Authentication" style="html=1;overflow=block;blockSpacing=1;whiteSpace=wrap;ellipse;fontSize=13;spacing=3.8;strokeColor=#3a414a;strokeOpacity=100;fillOpacity=100;rounded=1;absoluteArcSize=1;arcSize=9;fillColor=#ffffff;strokeWidth=1.5;lucidId=ie2NSuUGnqbv;" parent="1" vertex="1">
          <mxGeometry x="665" y="37" width="120" height="90" as="geometry" />
        </mxCell>
        <mxCell id="RtYx9xhGGRkn4zn4l_9_-8" value="User Type" style="html=1;overflow=block;blockSpacing=1;whiteSpace=wrap;ellipse;fontSize=13;spacing=3.8;strokeColor=#3a414a;strokeOpacity=100;fillOpacity=100;rounded=1;absoluteArcSize=1;arcSize=9;fillColor=#ffffff;strokeWidth=1.5;lucidId=xe2NPOXNQaJQ;" parent="1" vertex="1">
          <mxGeometry x="903" y="37" width="120" height="90" as="geometry" />
        </mxCell>
        <mxCell id="RtYx9xhGGRkn4zn4l_9_-9" value="Verification" style="html=1;overflow=block;blockSpacing=1;whiteSpace=wrap;ellipse;fontSize=13;spacing=3.8;strokeColor=#3a414a;strokeOpacity=100;fillOpacity=100;rounded=1;absoluteArcSize=1;arcSize=9;fillColor=#ffffff;strokeWidth=1.5;lucidId=Ie2NEz1RCKbv;" parent="1" vertex="1">
          <mxGeometry x="1143" y="37" width="120" height="90" as="geometry" />
        </mxCell>
        <mxCell id="RtYx9xhGGRkn4zn4l_9_-10" value="Enhance Profile" style="html=1;overflow=block;blockSpacing=1;whiteSpace=wrap;ellipse;fontSize=13;spacing=3.8;strokeColor=#3a414a;strokeOpacity=100;fillOpacity=100;rounded=1;absoluteArcSize=1;arcSize=9;fillColor=#ffffff;strokeWidth=1.5;lucidId=Ve2N2gkib1of;" parent="1" vertex="1">
          <mxGeometry x="524" y="-110" width="120" height="90" as="geometry" />
        </mxCell>
        <mxCell id="RtYx9xhGGRkn4zn4l_9_-11" value="" style="html=1;jettySize=18;whiteSpace=wrap;fontSize=13;strokeColor=#3a414a;strokeOpacity=100;strokeWidth=0.8;rounded=1;arcSize=12;edgeStyle=orthogonalEdgeStyle;startArrow=none;endArrow=block;endFill=1;entryX=0.001;entryY=0.583;entryPerimeter=0;lucidId=ff2Nyzj1YwN0;" parent="1" target="RtYx9xhGGRkn4zn4l_9_-6" edge="1">
          <mxGeometry width="100" height="100" relative="1" as="geometry">
            <Array as="points" />
            <mxPoint x="180" y="90" as="sourcePoint" />
          </mxGeometry>
        </mxCell>
        <mxCell id="RtYx9xhGGRkn4zn4l_9_-12" value="" style="html=1;jettySize=18;whiteSpace=wrap;fontSize=13;strokeColor=#3a414a;strokeOpacity=100;strokeWidth=0.8;rounded=1;arcSize=12;edgeStyle=orthogonalEdgeStyle;startArrow=none;endArrow=block;endFill=1;exitX=1.006;exitY=0.506;exitPerimeter=0;entryX=-0.006;entryY=0.509;entryPerimeter=0;lucidId=Af2NUY4z62~e;dashed=1;" parent="1" source="RtYx9xhGGRkn4zn4l_9_-6" target="RtYx9xhGGRkn4zn4l_9_-7" edge="1">
          <mxGeometry width="100" height="100" relative="1" as="geometry">
            <Array as="points" />
          </mxGeometry>
        </mxCell>
        <mxCell id="QKum8VZ0ect6uWflZ8Zq-3" value="&amp;lt;&amp;lt;include&amp;gt;&amp;gt;" style="edgeLabel;html=1;align=center;verticalAlign=middle;resizable=0;points=[];" vertex="1" connectable="0" parent="RtYx9xhGGRkn4zn4l_9_-12">
          <mxGeometry x="-0.0868" relative="1" as="geometry">
            <mxPoint as="offset" />
          </mxGeometry>
        </mxCell>
        <mxCell id="RtYx9xhGGRkn4zn4l_9_-13" value="" style="html=1;jettySize=18;whiteSpace=wrap;fontSize=13;strokeColor=#3a414a;strokeOpacity=100;strokeWidth=0.8;rounded=1;arcSize=12;edgeStyle=orthogonalEdgeStyle;startArrow=none;endArrow=block;endFill=1;exitX=1.006;exitY=0.5;exitPerimeter=0;entryX=-0.006;entryY=0.5;entryPerimeter=0;lucidId=If2N~Ru2rR69;dashed=1;" parent="1" source="RtYx9xhGGRkn4zn4l_9_-7" target="RtYx9xhGGRkn4zn4l_9_-8" edge="1">
          <mxGeometry width="100" height="100" relative="1" as="geometry">
            <Array as="points" />
          </mxGeometry>
        </mxCell>
        <mxCell id="QKum8VZ0ect6uWflZ8Zq-5" value="&amp;lt;&amp;lt;include&amp;gt;&amp;gt;" style="edgeLabel;html=1;align=center;verticalAlign=middle;resizable=0;points=[];" vertex="1" connectable="0" parent="RtYx9xhGGRkn4zn4l_9_-13">
          <mxGeometry x="0.4073" y="1" relative="1" as="geometry">
            <mxPoint x="-28" y="1" as="offset" />
          </mxGeometry>
        </mxCell>
        <mxCell id="RtYx9xhGGRkn4zn4l_9_-14" value="" style="html=1;jettySize=18;whiteSpace=wrap;fontSize=13;strokeColor=#3a414a;strokeOpacity=100;strokeWidth=0.8;rounded=1;arcSize=12;edgeStyle=orthogonalEdgeStyle;startArrow=classic;endArrow=none;endFill=1;exitX=1.006;exitY=0.5;exitPerimeter=0;entryX=-0.006;entryY=0.5;entryPerimeter=0;lucidId=0f2NqhdM4Jrs;startFill=1;dashed=1;" parent="1" source="RtYx9xhGGRkn4zn4l_9_-8" target="RtYx9xhGGRkn4zn4l_9_-9" edge="1">
          <mxGeometry width="100" height="100" relative="1" as="geometry">
            <Array as="points" />
          </mxGeometry>
        </mxCell>
        <mxCell id="QKum8VZ0ect6uWflZ8Zq-6" value="&amp;lt;&amp;lt;extend&amp;gt;&amp;gt;" style="edgeLabel;html=1;align=center;verticalAlign=middle;resizable=0;points=[];" vertex="1" connectable="0" parent="RtYx9xhGGRkn4zn4l_9_-14">
          <mxGeometry x="-0.0412" y="-1" relative="1" as="geometry">
            <mxPoint as="offset" />
          </mxGeometry>
        </mxCell>
        <mxCell id="RtYx9xhGGRkn4zn4l_9_-17" value="" style="html=1;jettySize=18;whiteSpace=wrap;fontSize=13;strokeColor=#3a414a;strokeOpacity=100;strokeWidth=0.8;rounded=1;arcSize=12;edgeStyle=orthogonalEdgeStyle;startArrow=none;endArrow=block;endFill=1;entryX=-0.006;entryY=0.5;entryPerimeter=0;lucidId=bh2N.PQnJD9T;" parent="1" target="RtYx9xhGGRkn4zn4l_9_-18" edge="1">
          <mxGeometry width="100" height="100" relative="1" as="geometry">
            <Array as="points">
              <mxPoint x="256" y="90" />
              <mxPoint x="256" y="210" />
            </Array>
            <mxPoint x="180" y="90" as="sourcePoint" />
          </mxGeometry>
        </mxCell>
        <mxCell id="RtYx9xhGGRkn4zn4l_9_-18" value="Change Language" style="html=1;overflow=block;blockSpacing=1;whiteSpace=wrap;ellipse;fontSize=13;spacing=3.8;strokeColor=#3a414a;strokeOpacity=100;fillOpacity=100;rounded=1;absoluteArcSize=1;arcSize=9;fillColor=#ffffff;strokeWidth=1.5;lucidId=lh2NhNY9c4b3;" parent="1" vertex="1">
          <mxGeometry x="404" y="165" width="120" height="90" as="geometry" />
        </mxCell>
        <mxCell id="RtYx9xhGGRkn4zn4l_9_-19" value="Search" style="html=1;overflow=block;blockSpacing=1;whiteSpace=wrap;ellipse;fontSize=13;spacing=3.8;strokeColor=#3a414a;strokeOpacity=100;fillOpacity=100;rounded=1;absoluteArcSize=1;arcSize=9;fillColor=#ffffff;strokeWidth=1.5;lucidId=zh2NIjurEAJ8;" parent="1" vertex="1">
          <mxGeometry x="405" y="318" width="120" height="90" as="geometry" />
        </mxCell>
        <mxCell id="RtYx9xhGGRkn4zn4l_9_-20" value="" style="html=1;jettySize=18;whiteSpace=wrap;fontSize=13;strokeColor=#3a414a;strokeOpacity=100;strokeWidth=0.8;rounded=1;arcSize=12;edgeStyle=orthogonalEdgeStyle;startArrow=none;endArrow=block;endFill=1;entryX=-0.006;entryY=0.5;entryPerimeter=0;lucidId=Gh2N~Wo6~D3Y;" parent="1" target="RtYx9xhGGRkn4zn4l_9_-19" edge="1">
          <mxGeometry width="100" height="100" relative="1" as="geometry">
            <Array as="points" />
            <mxPoint x="105" y="90" as="sourcePoint" />
          </mxGeometry>
        </mxCell>
        <mxCell id="RtYx9xhGGRkn4zn4l_9_-21" value="For Rent" style="html=1;overflow=block;blockSpacing=1;whiteSpace=wrap;ellipse;fontSize=13;spacing=3.8;strokeColor=#3a414a;strokeOpacity=100;fillOpacity=100;rounded=1;absoluteArcSize=1;arcSize=9;fillColor=#ffffff;strokeWidth=1.5;lucidId=9h2N9iXnFSrb;" parent="1" vertex="1">
          <mxGeometry x="615" y="240" width="120" height="90" as="geometry" />
        </mxCell>
        <mxCell id="RtYx9xhGGRkn4zn4l_9_-22" value="For Buy" style="html=1;overflow=block;blockSpacing=1;whiteSpace=wrap;ellipse;fontSize=13;spacing=3.8;strokeColor=#3a414a;strokeOpacity=100;fillOpacity=100;rounded=1;absoluteArcSize=1;arcSize=9;fillColor=#ffffff;strokeWidth=1.5;lucidId=_h2Ns~Ce41wU;" parent="1" vertex="1">
          <mxGeometry x="615" y="408" width="120" height="90" as="geometry" />
        </mxCell>
        <mxCell id="RtYx9xhGGRkn4zn4l_9_-23" value="Duration" style="html=1;overflow=block;blockSpacing=1;whiteSpace=wrap;ellipse;fontSize=13;spacing=3.8;strokeColor=#3a414a;strokeOpacity=100;fillOpacity=100;rounded=1;absoluteArcSize=1;arcSize=9;fillColor=#ffffff;strokeWidth=1.5;lucidId=oi2NFCCOpKik;" parent="1" vertex="1">
          <mxGeometry x="900" y="240" width="120" height="90" as="geometry" />
        </mxCell>
        <mxCell id="RtYx9xhGGRkn4zn4l_9_-24" value="" style="html=1;jettySize=18;whiteSpace=wrap;fontSize=13;strokeColor=#3a414a;strokeOpacity=100;strokeWidth=0.8;rounded=1;arcSize=12;edgeStyle=orthogonalEdgeStyle;startArrow=none;startFill=0;endArrow=classic;exitX=1.005;exitY=0.459;exitPerimeter=0;entryX=-0.005;entryY=0.459;entryPerimeter=0;lucidId=Gi2NdZY0Ms.r;dashed=1;endFill=1;" parent="1" source="RtYx9xhGGRkn4zn4l_9_-21" target="RtYx9xhGGRkn4zn4l_9_-23" edge="1">
          <mxGeometry width="100" height="100" relative="1" as="geometry">
            <Array as="points" />
          </mxGeometry>
        </mxCell>
        <mxCell id="QKum8VZ0ect6uWflZ8Zq-9" value="&amp;lt;&amp;lt;include&amp;gt;&amp;gt;" style="edgeLabel;html=1;align=center;verticalAlign=middle;resizable=0;points=[];" vertex="1" connectable="0" parent="RtYx9xhGGRkn4zn4l_9_-24">
          <mxGeometry x="-0.0115" relative="1" as="geometry">
            <mxPoint as="offset" />
          </mxGeometry>
        </mxCell>
        <mxCell id="RtYx9xhGGRkn4zn4l_9_-25" value="" style="html=1;jettySize=18;whiteSpace=wrap;fontSize=13;strokeColor=#3a414a;strokeOpacity=100;strokeWidth=0.8;rounded=1;arcSize=12;edgeStyle=orthogonalEdgeStyle;startArrow=none;endArrow=block;endFill=1;exitX=1.006;exitY=0.5;exitPerimeter=0;entryX=-0.006;entryY=0.5;entryPerimeter=0;lucidId=Ni2N4o2TWmvw;" parent="1" source="RtYx9xhGGRkn4zn4l_9_-19" target="RtYx9xhGGRkn4zn4l_9_-21" edge="1">
          <mxGeometry width="100" height="100" relative="1" as="geometry">
            <Array as="points" />
          </mxGeometry>
        </mxCell>
        <mxCell id="RtYx9xhGGRkn4zn4l_9_-26" value="" style="html=1;jettySize=18;whiteSpace=wrap;fontSize=13;strokeColor=#3a414a;strokeOpacity=100;strokeWidth=0.8;rounded=1;arcSize=12;edgeStyle=orthogonalEdgeStyle;startArrow=none;endArrow=block;endFill=1;exitX=1.006;exitY=0.5;exitPerimeter=0;entryX=-0.006;entryY=0.5;entryPerimeter=0;lucidId=Ui2NdpzxIE4U;" parent="1" source="RtYx9xhGGRkn4zn4l_9_-19" target="RtYx9xhGGRkn4zn4l_9_-22" edge="1">
          <mxGeometry width="100" height="100" relative="1" as="geometry">
            <Array as="points" />
          </mxGeometry>
        </mxCell>
        <mxCell id="RtYx9xhGGRkn4zn4l_9_-28" value="FIlter" style="html=1;overflow=block;blockSpacing=1;whiteSpace=wrap;ellipse;fontSize=13;spacing=3.8;strokeColor=#3a414a;strokeOpacity=100;fillOpacity=100;rounded=1;absoluteArcSize=1;arcSize=9;fillColor=#ffffff;strokeWidth=1.5;lucidId=jk2NwlVtYKUZ;" parent="1" vertex="1">
          <mxGeometry x="450" y="510" width="120" height="90" as="geometry" />
        </mxCell>
        <mxCell id="RtYx9xhGGRkn4zn4l_9_-30" value="Verified" style="html=1;overflow=block;blockSpacing=1;whiteSpace=wrap;ellipse;fontSize=13;spacing=3.8;strokeColor=#3a414a;strokeOpacity=100;fillOpacity=100;rounded=1;absoluteArcSize=1;arcSize=9;fillColor=#ffffff;strokeWidth=1.5;lucidId=al2Ni9gf6FhD;" parent="1" vertex="1">
          <mxGeometry x="707" y="520" width="120" height="90" as="geometry" />
        </mxCell>
        <mxCell id="RtYx9xhGGRkn4zn4l_9_-32" value="" style="html=1;jettySize=18;whiteSpace=wrap;fontSize=13;strokeColor=#3a414a;strokeOpacity=100;strokeWidth=0.8;rounded=1;arcSize=12;edgeStyle=orthogonalEdgeStyle;startArrow=none;endArrow=block;endFill=1;entryX=-0.006;entryY=0.5;entryPerimeter=0;lucidId=sm2NMlRjk~uu;" parent="1" target="RtYx9xhGGRkn4zn4l_9_-33" edge="1">
          <mxGeometry width="100" height="100" relative="1" as="geometry">
            <Array as="points" />
            <mxPoint x="30" y="802" as="sourcePoint" />
          </mxGeometry>
        </mxCell>
        <mxCell id="RtYx9xhGGRkn4zn4l_9_-33" value="Seller Type" style="html=1;overflow=block;blockSpacing=1;whiteSpace=wrap;ellipse;fontSize=13;spacing=3.8;strokeColor=#3a414a;strokeOpacity=100;fillOpacity=100;rounded=1;absoluteArcSize=1;arcSize=9;fillColor=#ffffff;strokeWidth=1.5;lucidId=Dm2N.O1Cw66J;" parent="1" vertex="1">
          <mxGeometry x="315" y="758" width="120" height="90" as="geometry" />
        </mxCell>
        <mxCell id="RtYx9xhGGRkn4zn4l_9_-34" value="Gold" style="html=1;overflow=block;blockSpacing=1;whiteSpace=wrap;ellipse;fontSize=13;spacing=3.8;strokeColor=#3a414a;strokeOpacity=100;fillOpacity=100;rounded=1;absoluteArcSize=1;arcSize=9;fillColor=#ffffff;strokeWidth=1.5;lucidId=Zm2NnLyQ7PNg;" parent="1" vertex="1">
          <mxGeometry x="548" y="720" width="120" height="90" as="geometry" />
        </mxCell>
        <mxCell id="RtYx9xhGGRkn4zn4l_9_-35" value="Free" style="html=1;overflow=block;blockSpacing=1;whiteSpace=wrap;ellipse;fontSize=13;spacing=3.8;strokeColor=#3a414a;strokeOpacity=100;fillOpacity=100;rounded=1;absoluteArcSize=1;arcSize=9;fillColor=#ffffff;strokeWidth=1.5;lucidId=0m2NQB7Sojcu;" parent="1" vertex="1">
          <mxGeometry x="548" y="825" width="120" height="90" as="geometry" />
        </mxCell>
        <mxCell id="RtYx9xhGGRkn4zn4l_9_-36" value="Infinite Listing" style="html=1;overflow=block;blockSpacing=1;whiteSpace=wrap;ellipse;fontSize=13;spacing=3.8;strokeColor=#3a414a;strokeOpacity=100;fillOpacity=100;rounded=1;absoluteArcSize=1;arcSize=9;fillColor=#ffffff;strokeWidth=1.5;lucidId=cn2N3BMARIzr;" parent="1" vertex="1">
          <mxGeometry x="745" y="652" width="70" height="61" as="geometry" />
        </mxCell>
        <mxCell id="RtYx9xhGGRkn4zn4l_9_-37" value="Limited Listing" style="html=1;overflow=block;blockSpacing=1;whiteSpace=wrap;ellipse;fontSize=13;spacing=3.8;strokeColor=#3a414a;strokeOpacity=100;fillOpacity=100;rounded=1;absoluteArcSize=1;arcSize=9;fillColor=#ffffff;strokeWidth=1.5;lucidId=wn2NGP~Z6Ds-;" parent="1" vertex="1">
          <mxGeometry x="735" y="930" width="70" height="61" as="geometry" />
        </mxCell>
        <mxCell id="RtYx9xhGGRkn4zn4l_9_-40" value="" style="html=1;jettySize=18;whiteSpace=wrap;fontSize=13;strokeColor=#3a414a;strokeOpacity=100;strokeWidth=0.8;rounded=1;arcSize=12;edgeStyle=orthogonalEdgeStyle;startArrow=none;endArrow=block;endFill=1;exitX=0.999;exitY=0.417;exitPerimeter=0;entryX=-0.006;entryY=0.5;entryPerimeter=0;lucidId=eo2N2k-c11Nn;" parent="1" source="RtYx9xhGGRkn4zn4l_9_-33" target="RtYx9xhGGRkn4zn4l_9_-34" edge="1">
          <mxGeometry width="100" height="100" relative="1" as="geometry">
            <Array as="points">
              <mxPoint x="435" y="803" />
              <mxPoint x="492" y="803" />
              <mxPoint x="492" y="765" />
            </Array>
          </mxGeometry>
        </mxCell>
        <mxCell id="RtYx9xhGGRkn4zn4l_9_-41" value="" style="html=1;jettySize=18;whiteSpace=wrap;fontSize=13;strokeColor=#3a414a;strokeOpacity=100;strokeWidth=0.8;rounded=1;arcSize=12;edgeStyle=orthogonalEdgeStyle;startArrow=none;endArrow=block;endFill=1;exitX=1.006;exitY=0.5;exitPerimeter=0;entryX=-0.006;entryY=0.5;entryPerimeter=0;lucidId=ko2NCZfHojib;" parent="1" source="RtYx9xhGGRkn4zn4l_9_-33" target="RtYx9xhGGRkn4zn4l_9_-35" edge="1">
          <mxGeometry width="100" height="100" relative="1" as="geometry">
            <Array as="points" />
          </mxGeometry>
        </mxCell>
        <mxCell id="RtYx9xhGGRkn4zn4l_9_-42" value="" style="html=1;jettySize=18;whiteSpace=wrap;fontSize=13;strokeColor=#3a414a;strokeOpacity=100;strokeWidth=0.8;rounded=1;arcSize=12;edgeStyle=orthogonalEdgeStyle;startArrow=none;endArrow=block;endFill=1;exitX=1.006;exitY=0.5;exitPerimeter=0;entryX=-0.006;entryY=0.5;entryPerimeter=0;lucidId=xo2N60hsEZCy;" parent="1" source="RtYx9xhGGRkn4zn4l_9_-34" target="RtYx9xhGGRkn4zn4l_9_-44" edge="1">
          <mxGeometry width="100" height="100" relative="1" as="geometry">
            <Array as="points" />
          </mxGeometry>
        </mxCell>
        <mxCell id="RtYx9xhGGRkn4zn4l_9_-43" value="" style="html=1;jettySize=18;whiteSpace=wrap;fontSize=13;strokeColor=#3a414a;strokeOpacity=100;strokeWidth=0.8;rounded=1;arcSize=12;edgeStyle=orthogonalEdgeStyle;startArrow=none;endArrow=block;endFill=1;exitX=1.006;exitY=0.5;exitPerimeter=0;entryX=-0.006;entryY=0.5;entryPerimeter=0;lucidId=Uo2NaMtc.MYV;" parent="1" source="RtYx9xhGGRkn4zn4l_9_-35" target="RtYx9xhGGRkn4zn4l_9_-44" edge="1">
          <mxGeometry width="100" height="100" relative="1" as="geometry">
            <Array as="points" />
          </mxGeometry>
        </mxCell>
        <mxCell id="RtYx9xhGGRkn4zn4l_9_-44" value="Listing" style="html=1;overflow=block;blockSpacing=1;whiteSpace=wrap;ellipse;fontSize=13;spacing=3.8;strokeColor=#3a414a;strokeOpacity=100;fillOpacity=100;rounded=1;absoluteArcSize=1;arcSize=9;fillColor=#ffffff;strokeWidth=1.5;lucidId=Yo2NwXqtcYpD;" parent="1" vertex="1">
          <mxGeometry x="810" y="758" width="120" height="90" as="geometry" />
        </mxCell>
        <mxCell id="RtYx9xhGGRkn4zn4l_9_-45" value="Remove Listing" style="html=1;overflow=block;blockSpacing=1;whiteSpace=wrap;ellipse;fontSize=13;spacing=3.8;strokeColor=#3a414a;strokeOpacity=100;fillOpacity=100;rounded=1;absoluteArcSize=1;arcSize=9;fillColor=#ffffff;strokeWidth=1.5;lucidId=~o2Nf5Nywa8o;" parent="1" vertex="1">
          <mxGeometry x="825" y="630" width="90" height="75" as="geometry" />
        </mxCell>
        <mxCell id="RtYx9xhGGRkn4zn4l_9_-47" value="Add Description" style="html=1;overflow=block;blockSpacing=1;whiteSpace=wrap;ellipse;fontSize=13;spacing=3.8;strokeColor=#3a414a;strokeOpacity=100;fillOpacity=100;rounded=1;absoluteArcSize=1;arcSize=9;fillColor=#ffffff;strokeWidth=1.5;lucidId=Wp2N..n03a1h;" parent="1" vertex="1">
          <mxGeometry x="1023" y="758" width="120" height="90" as="geometry" />
        </mxCell>
        <mxCell id="RtYx9xhGGRkn4zn4l_9_-48" value="Add photo" style="html=1;overflow=block;blockSpacing=1;whiteSpace=wrap;ellipse;fontSize=13;spacing=3.8;strokeColor=#3a414a;strokeOpacity=100;fillOpacity=100;rounded=1;absoluteArcSize=1;arcSize=9;fillColor=#ffffff;strokeWidth=1.5;lucidId=aq2N1Zbb_zrb;" parent="1" vertex="1">
          <mxGeometry x="1023" y="600" width="120" height="90" as="geometry" />
        </mxCell>
        <mxCell id="QKum8VZ0ect6uWflZ8Zq-15" value="&amp;lt;&amp;lt;include&amp;gt;&amp;gt;" style="edgeStyle=orthogonalEdgeStyle;rounded=0;orthogonalLoop=1;jettySize=auto;html=1;entryX=0.5;entryY=1;entryDx=0;entryDy=0;dashed=1;endArrow=none;startFill=1;startArrow=classic;" edge="1" parent="1" source="RtYx9xhGGRkn4zn4l_9_-49" target="RtYx9xhGGRkn4zn4l_9_-47">
          <mxGeometry relative="1" as="geometry" />
        </mxCell>
        <mxCell id="RtYx9xhGGRkn4zn4l_9_-49" value="Type of Property" style="html=1;overflow=block;blockSpacing=1;whiteSpace=wrap;ellipse;fontSize=13;spacing=3.8;strokeColor=#3a414a;strokeOpacity=100;fillOpacity=100;rounded=1;absoluteArcSize=1;arcSize=9;fillColor=#ffffff;strokeWidth=1.5;lucidId=iq2NwP-8j8MI;" parent="1" vertex="1">
          <mxGeometry x="1157" y="870" width="120" height="90" as="geometry" />
        </mxCell>
        <mxCell id="QKum8VZ0ect6uWflZ8Zq-18" style="edgeStyle=orthogonalEdgeStyle;rounded=0;orthogonalLoop=1;jettySize=auto;html=1;entryX=0.5;entryY=1;entryDx=0;entryDy=0;" edge="1" parent="1" source="RtYx9xhGGRkn4zn4l_9_-50" target="RtYx9xhGGRkn4zn4l_9_-49">
          <mxGeometry relative="1" as="geometry" />
        </mxCell>
        <mxCell id="RtYx9xhGGRkn4zn4l_9_-50" value="Commercial" style="html=1;overflow=block;blockSpacing=1;whiteSpace=wrap;ellipse;fontSize=13;spacing=3.8;strokeColor=#3a414a;strokeOpacity=100;fillOpacity=100;rounded=1;absoluteArcSize=1;arcSize=9;fillColor=#ffffff;strokeWidth=1.5;lucidId=uq2NrSCWiOrT;" parent="1" vertex="1">
          <mxGeometry x="1088" y="1024" width="102" height="66" as="geometry" />
        </mxCell>
        <mxCell id="QKum8VZ0ect6uWflZ8Zq-19" style="edgeStyle=orthogonalEdgeStyle;rounded=0;orthogonalLoop=1;jettySize=auto;html=1;entryX=0.5;entryY=1;entryDx=0;entryDy=0;" edge="1" parent="1" source="RtYx9xhGGRkn4zn4l_9_-51" target="RtYx9xhGGRkn4zn4l_9_-49">
          <mxGeometry relative="1" as="geometry" />
        </mxCell>
        <mxCell id="RtYx9xhGGRkn4zn4l_9_-51" value="Residential" style="html=1;overflow=block;blockSpacing=1;whiteSpace=wrap;ellipse;fontSize=13;spacing=3.8;strokeColor=#3a414a;strokeOpacity=100;fillOpacity=100;rounded=1;absoluteArcSize=1;arcSize=9;fillColor=#ffffff;strokeWidth=1.5;lucidId=vq2NO-f4~Nze;" parent="1" vertex="1">
          <mxGeometry x="1230" y="1024" width="110" height="66" as="geometry" />
        </mxCell>
        <mxCell id="RtYx9xhGGRkn4zn4l_9_-55" value="" style="html=1;jettySize=18;whiteSpace=wrap;fontSize=13;strokeColor=#3a414a;strokeOpacity=100;strokeWidth=0.8;rounded=1;arcSize=12;edgeStyle=orthogonalEdgeStyle;startArrow=none;endArrow=block;endFill=1;exitX=1.006;exitY=0.5;exitPerimeter=0;entryX=-0.006;entryY=0.5;entryPerimeter=0;lucidId=nr2Nhw4UFXUL;" parent="1" source="RtYx9xhGGRkn4zn4l_9_-44" target="RtYx9xhGGRkn4zn4l_9_-47" edge="1">
          <mxGeometry width="100" height="100" relative="1" as="geometry">
            <Array as="points" />
          </mxGeometry>
        </mxCell>
        <mxCell id="RtYx9xhGGRkn4zn4l_9_-56" value="Select Propety" style="html=1;overflow=block;blockSpacing=1;whiteSpace=wrap;ellipse;fontSize=13;spacing=3.8;strokeColor=#3a414a;strokeOpacity=100;fillOpacity=100;rounded=1;absoluteArcSize=1;arcSize=9;fillColor=#ffffff;strokeWidth=1.5;lucidId=Dr2N7geGq.aC;" parent="1" vertex="1">
          <mxGeometry x="315" y="1110" width="120" height="90" as="geometry" />
        </mxCell>
        <mxCell id="RtYx9xhGGRkn4zn4l_9_-57" value="Book an appointment" style="html=1;overflow=block;blockSpacing=1;whiteSpace=wrap;ellipse;fontSize=13;spacing=3.8;strokeColor=#3a414a;strokeOpacity=100;fillOpacity=100;rounded=1;absoluteArcSize=1;arcSize=9;fillColor=#ffffff;strokeWidth=1.5;lucidId=Mr2NWJrDn_1x;" parent="1" vertex="1">
          <mxGeometry x="518" y="1110" width="120" height="90" as="geometry" />
        </mxCell>
        <mxCell id="RtYx9xhGGRkn4zn4l_9_-58" value="Submit Documents" style="html=1;overflow=block;blockSpacing=1;whiteSpace=wrap;ellipse;fontSize=13;spacing=3.8;strokeColor=#3a414a;strokeOpacity=100;fillOpacity=100;rounded=1;absoluteArcSize=1;arcSize=9;fillColor=#ffffff;strokeWidth=1.5;lucidId=Wr2NKhF0GxpS;" parent="1" vertex="1">
          <mxGeometry x="720" y="1110" width="120" height="90" as="geometry" />
        </mxCell>
        <mxCell id="RtYx9xhGGRkn4zn4l_9_-59" value="" style="html=1;jettySize=18;whiteSpace=wrap;fontSize=13;strokeColor=#3a414a;strokeOpacity=100;strokeWidth=0.8;rounded=1;arcSize=12;edgeStyle=orthogonalEdgeStyle;startArrow=none;entryX=-0.006;entryY=0.5;entryPerimeter=0;lucidId=ns2NK8PLIFtY;" parent="1" target="RtYx9xhGGRkn4zn4l_9_-56" edge="1">
          <mxGeometry width="100" height="100" relative="1" as="geometry">
            <Array as="points" />
            <mxPoint x="193" y="1155" as="sourcePoint" />
          </mxGeometry>
        </mxCell>
        <mxCell id="RtYx9xhGGRkn4zn4l_9_-60" value="" style="html=1;jettySize=18;whiteSpace=wrap;fontSize=13;strokeColor=#3a414a;strokeOpacity=100;strokeWidth=0.8;rounded=1;arcSize=12;edgeStyle=orthogonalEdgeStyle;startArrow=none;endArrow=block;endFill=1;exitX=1.006;exitY=0.5;exitPerimeter=0;entryX=-0.006;entryY=0.5;entryPerimeter=0;lucidId=0s2NSb-.7L4Q;" parent="1" source="RtYx9xhGGRkn4zn4l_9_-56" target="RtYx9xhGGRkn4zn4l_9_-57" edge="1">
          <mxGeometry width="100" height="100" relative="1" as="geometry">
            <Array as="points" />
          </mxGeometry>
        </mxCell>
        <mxCell id="RtYx9xhGGRkn4zn4l_9_-62" value="" style="endArrow=classic;html=1;rounded=0;entryX=0.976;entryY=0.609;entryDx=0;entryDy=0;entryPerimeter=0;exitX=0;exitY=0.5;exitDx=0;exitDy=0;curved=1;dashed=1;" parent="1" source="RtYx9xhGGRkn4zn4l_9_-30" target="RtYx9xhGGRkn4zn4l_9_-28" edge="1">
          <mxGeometry width="50" height="50" relative="1" as="geometry">
            <mxPoint x="570" y="590" as="sourcePoint" />
            <mxPoint x="620" y="540" as="targetPoint" />
          </mxGeometry>
        </mxCell>
        <mxCell id="QKum8VZ0ect6uWflZ8Zq-10" value="&amp;lt;&amp;lt;extend&amp;gt;&amp;gt;" style="edgeLabel;html=1;align=center;verticalAlign=middle;resizable=0;points=[];" vertex="1" connectable="0" parent="RtYx9xhGGRkn4zn4l_9_-62">
          <mxGeometry x="-0.0699" relative="1" as="geometry">
            <mxPoint as="offset" />
          </mxGeometry>
        </mxCell>
        <mxCell id="RtYx9xhGGRkn4zn4l_9_-64" value="" style="endArrow=none;html=1;rounded=0;exitX=0;exitY=0.5;exitDx=0;exitDy=0;entryX=1;entryY=0;entryDx=0;entryDy=0;dashed=1;startArrow=classic;startFill=0;" parent="1" source="RtYx9xhGGRkn4zn4l_9_-36" target="RtYx9xhGGRkn4zn4l_9_-34" edge="1">
          <mxGeometry width="50" height="50" relative="1" as="geometry">
            <mxPoint x="702.5" y="761" as="sourcePoint" />
            <mxPoint x="747.5" y="735" as="targetPoint" />
          </mxGeometry>
        </mxCell>
        <mxCell id="QKum8VZ0ect6uWflZ8Zq-11" value="&amp;lt;&amp;lt;include&amp;gt;&amp;gt;" style="edgeLabel;html=1;align=center;verticalAlign=middle;resizable=0;points=[];" vertex="1" connectable="0" parent="RtYx9xhGGRkn4zn4l_9_-64">
          <mxGeometry x="-0.0008" relative="1" as="geometry">
            <mxPoint as="offset" />
          </mxGeometry>
        </mxCell>
        <mxCell id="RtYx9xhGGRkn4zn4l_9_-65" value="" style="endArrow=none;html=1;rounded=0;dashed=1;startArrow=classic;startFill=1;" parent="1" source="RtYx9xhGGRkn4zn4l_9_-37" edge="1">
          <mxGeometry width="50" height="50" relative="1" as="geometry">
            <mxPoint x="600" y="950" as="sourcePoint" />
            <mxPoint x="650" y="900" as="targetPoint" />
          </mxGeometry>
        </mxCell>
        <mxCell id="QKum8VZ0ect6uWflZ8Zq-13" value="&amp;lt;&amp;lt;include&amp;gt;&amp;gt;" style="edgeLabel;html=1;align=center;verticalAlign=middle;resizable=0;points=[];" vertex="1" connectable="0" parent="RtYx9xhGGRkn4zn4l_9_-65">
          <mxGeometry x="-0.2632" y="-2" relative="1" as="geometry">
            <mxPoint as="offset" />
          </mxGeometry>
        </mxCell>
        <mxCell id="RtYx9xhGGRkn4zn4l_9_-66" value="" style="endArrow=classic;html=1;rounded=0;exitX=0.5;exitY=1;exitDx=0;exitDy=0;entryX=0.5;entryY=0;entryDx=0;entryDy=0;dashed=1;" parent="1" source="RtYx9xhGGRkn4zn4l_9_-45" target="RtYx9xhGGRkn4zn4l_9_-44" edge="1">
          <mxGeometry width="50" height="50" relative="1" as="geometry">
            <mxPoint x="880" y="720" as="sourcePoint" />
            <mxPoint x="930" y="670" as="targetPoint" />
          </mxGeometry>
        </mxCell>
        <mxCell id="QKum8VZ0ect6uWflZ8Zq-14" value="&amp;lt;&amp;lt;extend&amp;gt;&amp;gt;" style="edgeLabel;html=1;align=center;verticalAlign=middle;resizable=0;points=[];" vertex="1" connectable="0" parent="RtYx9xhGGRkn4zn4l_9_-66">
          <mxGeometry x="-0.0189" relative="1" as="geometry">
            <mxPoint as="offset" />
          </mxGeometry>
        </mxCell>
        <mxCell id="RtYx9xhGGRkn4zn4l_9_-67" value="" style="endArrow=none;html=1;rounded=0;exitX=0.5;exitY=1;exitDx=0;exitDy=0;entryX=0.5;entryY=0;entryDx=0;entryDy=0;dashed=1;startFill=1;startArrow=classic;" parent="1" source="RtYx9xhGGRkn4zn4l_9_-48" target="RtYx9xhGGRkn4zn4l_9_-47" edge="1">
          <mxGeometry width="50" height="50" relative="1" as="geometry">
            <mxPoint x="1192" y="708" as="sourcePoint" />
            <mxPoint x="1120" y="777" as="targetPoint" />
          </mxGeometry>
        </mxCell>
        <mxCell id="QKum8VZ0ect6uWflZ8Zq-16" value="&amp;lt;&amp;lt;include&amp;gt;&amp;gt;" style="edgeLabel;html=1;align=center;verticalAlign=middle;resizable=0;points=[];" vertex="1" connectable="0" parent="RtYx9xhGGRkn4zn4l_9_-67">
          <mxGeometry x="-0.1536" y="1" relative="1" as="geometry">
            <mxPoint as="offset" />
          </mxGeometry>
        </mxCell>
        <mxCell id="RtYx9xhGGRkn4zn4l_9_-71" value="" style="endArrow=classic;html=1;rounded=0;entryX=0;entryY=0.5;entryDx=0;entryDy=0;exitX=1;exitY=0.5;exitDx=0;exitDy=0;" parent="1" source="RtYx9xhGGRkn4zn4l_9_-57" target="RtYx9xhGGRkn4zn4l_9_-58" edge="1">
          <mxGeometry width="50" height="50" relative="1" as="geometry">
            <mxPoint x="710" y="1130" as="sourcePoint" />
            <mxPoint x="760" y="1080" as="targetPoint" />
          </mxGeometry>
        </mxCell>
        <mxCell id="RtYx9xhGGRkn4zn4l_9_-73" value="Seller" style="shape=umlActor;verticalLabelPosition=bottom;verticalAlign=top;html=1;outlineConnect=0;" parent="1" vertex="1">
          <mxGeometry x="-69" y="750" width="69" height="148" as="geometry" />
        </mxCell>
        <mxCell id="RtYx9xhGGRkn4zn4l_9_-74" value="Buyer" style="shape=umlActor;verticalLabelPosition=bottom;verticalAlign=top;html=1;outlineConnect=0;" parent="1" vertex="1">
          <mxGeometry x="86" y="1099" width="69" height="148" as="geometry" />
        </mxCell>
        <mxCell id="RtYx9xhGGRkn4zn4l_9_-81" value="" style="endArrow=classic;html=1;rounded=0;entryX=0.5;entryY=0;entryDx=0;entryDy=0;dashed=1;" parent="1" source="RtYx9xhGGRkn4zn4l_9_-10" target="RtYx9xhGGRkn4zn4l_9_-6" edge="1">
          <mxGeometry width="50" height="50" relative="1" as="geometry">
            <mxPoint x="430" as="sourcePoint" />
            <mxPoint x="480" y="-50" as="targetPoint" />
          </mxGeometry>
        </mxCell>
        <mxCell id="QKum8VZ0ect6uWflZ8Zq-4" value="&amp;lt;&amp;lt;extend&amp;gt;&amp;gt;" style="edgeLabel;html=1;align=center;verticalAlign=middle;resizable=0;points=[];" vertex="1" connectable="0" parent="RtYx9xhGGRkn4zn4l_9_-81">
          <mxGeometry x="-0.1377" y="1" relative="1" as="geometry">
            <mxPoint as="offset" />
          </mxGeometry>
        </mxCell>
        <mxCell id="RtYx9xhGGRkn4zn4l_9_-82" value="" style="endArrow=classic;html=1;rounded=0;exitX=0.5;exitY=0;exitDx=0;exitDy=0;entryX=0.5;entryY=1;entryDx=0;entryDy=0;dashed=1;" parent="1" source="RtYx9xhGGRkn4zn4l_9_-28" target="RtYx9xhGGRkn4zn4l_9_-19" edge="1">
          <mxGeometry width="50" height="50" relative="1" as="geometry">
            <mxPoint x="470" y="510" as="sourcePoint" />
            <mxPoint x="520" y="460" as="targetPoint" />
          </mxGeometry>
        </mxCell>
        <mxCell id="QKum8VZ0ect6uWflZ8Zq-8" value="&amp;lt;&amp;lt;extend&amp;gt;&amp;gt;" style="edgeLabel;html=1;align=center;verticalAlign=middle;resizable=0;points=[];" vertex="1" connectable="0" parent="RtYx9xhGGRkn4zn4l_9_-82">
          <mxGeometry x="0.0703" y="-1" relative="1" as="geometry">
            <mxPoint as="offset" />
          </mxGeometry>
        </mxCell>
        <mxCell id="RtYx9xhGGRkn4zn4l_9_-85" value="Rate the listing" style="html=1;overflow=block;blockSpacing=1;whiteSpace=wrap;ellipse;fontSize=13;spacing=3.8;strokeColor=#3a414a;strokeOpacity=100;fillOpacity=100;rounded=1;absoluteArcSize=1;arcSize=9;fillColor=#ffffff;strokeWidth=1.5;lucidId=Wr2NKhF0GxpS;" parent="1" vertex="1">
          <mxGeometry x="522" y="1260" width="112" height="60" as="geometry" />
        </mxCell>
        <mxCell id="RtYx9xhGGRkn4zn4l_9_-86" value="" style="endArrow=none;html=1;rounded=0;entryX=0.5;entryY=0;entryDx=0;entryDy=0;exitX=0.5;exitY=1;exitDx=0;exitDy=0;dashed=1;startArrow=classic;startFill=1;" parent="1" target="RtYx9xhGGRkn4zn4l_9_-85" edge="1" source="RtYx9xhGGRkn4zn4l_9_-57">
          <mxGeometry width="50" height="50" relative="1" as="geometry">
            <mxPoint x="840" y="1154.29" as="sourcePoint" />
            <mxPoint x="880" y="1154.29" as="targetPoint" />
          </mxGeometry>
        </mxCell>
        <mxCell id="QKum8VZ0ect6uWflZ8Zq-20" value="&amp;lt;&amp;lt;extend&amp;gt;&amp;gt;" style="edgeLabel;html=1;align=center;verticalAlign=middle;resizable=0;points=[];" vertex="1" connectable="0" parent="RtYx9xhGGRkn4zn4l_9_-86">
          <mxGeometry x="0.1788" relative="1" as="geometry">
            <mxPoint y="1" as="offset" />
          </mxGeometry>
        </mxCell>
        <mxCell id="QKum8VZ0ect6uWflZ8Zq-23" value="User" style="shape=umlActor;verticalLabelPosition=bottom;verticalAlign=top;html=1;outlineConnect=0;" vertex="1" parent="1">
          <mxGeometry x="30" y="-30" width="69" height="148" as="geometry" />
        </mxCell>
        <mxCell id="QKum8VZ0ect6uWflZ8Zq-25" value="" style="rounded=0;whiteSpace=wrap;html=1;fillColor=none;" vertex="1" parent="1">
          <mxGeometry x="210" y="-130" width="1162" height="1480" as="geometry" />
        </mxCell>
        <mxCell id="QKum8VZ0ect6uWflZ8Zq-26" value="" style="html=1;jettySize=18;whiteSpace=wrap;fontSize=13;strokeColor=#3a414a;strokeOpacity=100;strokeWidth=0.8;rounded=1;arcSize=12;edgeStyle=orthogonalEdgeStyle;startArrow=none;endArrow=block;endFill=1;lucidId=T_1NcUHb7CAU;" edge="1" parent="1">
          <mxGeometry width="100" height="100" relative="1" as="geometry">
            <Array as="points">
              <mxPoint x="70" y="290" />
              <mxPoint x="-40" y="290" />
            </Array>
            <mxPoint x="70" y="140" as="sourcePoint" />
            <mxPoint x="-40" y="720" as="targetPoint" />
          </mxGeometry>
        </mxCell>
      </root>
    </mxGraphModel>
  </diagram>
</mxfile>
